<svg width="64" height="77" viewBox="0 0 64 77" fill="none" xmlns="http://www.w3.org/2000/svg">
<path d="M21.9902 42.986C22.827 42.2123 35.4253 38.6152 36.7238 38.3092C42.9162 35.6417 48.6527 35.0239 53.9159 36.4501C56.2705 37.0679 57.898 38.3266 58.7925 40.2146C59.6928 42.1085 60.0795 44.2274 59.9525 46.5831C59.8255 48.9389 59.3177 51.3235 58.4174 53.7428C57.5171 56.1621 56.5418 58.0964 55.4915 59.5571C54.4353 61.0122 52.9637 62.7327 51.0765 64.719C49.1836 66.7052 46.8175 68.6221 43.9665 70.4813C36.9662 75.008 29.4695 77.179 21.4766 76.9885C9.8882 76.8037 3.04365 72.0575 0.9372 62.7615C0.25621 59.788 -0.0554211 56.4392 0.00806102 52.7208C0.625569 41.9352 3.85162 31.8597 9.67466 22.5003C12.4621 18.037 16.2133 13.6374 20.9225 9.29546C23.8947 6.6337 27.2419 4.5839 30.9585 3.15775C32.938 2.35518 35.3272 1.57569 38.1147 0.830859C47.0368 -0.964818 53.9736 0.149569 58.931 4.17974C61.2856 6.10244 62.8496 8.89122 63.6229 12.5461C64.3962 16.2067 63.9807 20.2946 62.3706 24.8214C61.6896 26.9288 60.5123 28.5109 58.8387 29.5617C57.1651 30.6183 55.4453 31.2189 53.6793 31.3748C51.9134 31.5307 50.3148 31.3112 48.8951 30.7223C47.4696 30.1333 46.6963 29.2788 46.5693 28.1645L45.7325 26.3053C44.2436 24.0708 41.6754 23.7937 38.0165 25.4681C34.854 26.8943 31.6972 29.3712 28.5346 32.9048C25.1874 36.6867 23.0174 40.0991 22.0306 43.1361" fill="#C2C1C1"/>
</svg>
