<svg width="140" height="82" viewBox="0 0 140 82" fill="none" xmlns="http://www.w3.org/2000/svg">
<path d="M0.134321 60.464C0.958652 49.6821 5.39515 38.7627 9.57405 29.0475C14.8521 16.7861 22.9637 4.13463 35.8553 0.745231C48.5752 -2.60402 63.2013 5.70026 66.8765 18.3517C74.1237 10.7528 83.2257 4.54179 93.5184 2.51733C103.811 0.49287 115.346 3.17687 122.45 10.9134C125.85 14.6182 128.095 19.2406 129.926 23.9319C136.143 39.8752 137.895 57.0401 139.898 73.9011C140.042 75.0825 140.145 76.4074 139.4 77.3364C138.828 78.059 137.883 78.3572 136.99 78.5981C117.848 83.7826 95.4533 81.609 75.801 81.2018C54.7005 80.766 33.6113 79.4756 12.6309 77.1586C8.48067 76.6998 2.62449 75.6847 0.895683 71.263C0.16867 69.4106 0.0942483 67.3746 0.0255541 65.3846C-0.0316911 63.7559 0.0083819 62.1099 0.134321 60.464Z" fill="#F7E9AF"/>
</svg>
